<mxfile host="app.diagrams.net" agent="Mozilla/5.0 (Windows NT 10.0; Win64; x64) AppleWebKit/537.36 (KHTML, like Gecko) Chrome/136.0.0.0 Safari/537.36" version="27.0.6">
  <diagram name="Page-1" id="m_Tl0X3lGwlqqeYvswaK">
    <mxGraphModel dx="2015" dy="626" grid="1" gridSize="10" guides="1" tooltips="1" connect="1" arrows="1" fold="1" page="1" pageScale="1" pageWidth="827" pageHeight="1169" math="0" shadow="0">
      <root>
        <mxCell id="0" />
        <mxCell id="1" parent="0" />
        <mxCell id="_4A2EX0xtFqQqvu9u2pJ-1" value="" style="rounded=0;whiteSpace=wrap;html=1;" vertex="1" parent="1">
          <mxGeometry x="-170" y="160" width="826" height="500" as="geometry" />
        </mxCell>
        <mxCell id="_4A2EX0xtFqQqvu9u2pJ-2" value="A part of our application&lt;div&gt;&lt;br&gt;&lt;/div&gt;&lt;div&gt;&lt;br&gt;&lt;/div&gt;&lt;div&gt;&lt;br&gt;&lt;/div&gt;&lt;div&gt;&lt;br&gt;&lt;/div&gt;&lt;div&gt;&lt;br&gt;&lt;/div&gt;&lt;div&gt;&lt;br&gt;&lt;/div&gt;&lt;div&gt;&lt;br&gt;&lt;/div&gt;&lt;div&gt;&lt;br&gt;&lt;/div&gt;&lt;div&gt;&lt;br&gt;&lt;/div&gt;&lt;div&gt;&lt;br&gt;&lt;/div&gt;&lt;div&gt;&lt;br&gt;&lt;/div&gt;&lt;div&gt;&lt;br&gt;&lt;/div&gt;&lt;div&gt;&lt;br&gt;&lt;/div&gt;&lt;div&gt;&lt;br&gt;&lt;/div&gt;&lt;div&gt;&lt;br&gt;&lt;/div&gt;&lt;div&gt;&lt;br&gt;&lt;/div&gt;" style="rounded=0;whiteSpace=wrap;html=1;" vertex="1" parent="1">
          <mxGeometry x="220" y="210" width="260" height="260" as="geometry" />
        </mxCell>
        <mxCell id="_4A2EX0xtFqQqvu9u2pJ-3" value="Tomcat Threads pool&lt;div&gt;for the HTTP requests&lt;/div&gt;&lt;div&gt;&lt;br&gt;&lt;/div&gt;&lt;div&gt;&lt;br&gt;&lt;/div&gt;&lt;div&gt;&lt;br&gt;&lt;/div&gt;&lt;div&gt;&lt;br&gt;&lt;/div&gt;&lt;div&gt;The request is&amp;nbsp;&lt;/div&gt;&lt;div&gt;handled by a thread&lt;/div&gt;" style="ellipse;whiteSpace=wrap;html=1;" vertex="1" parent="1">
          <mxGeometry x="10" y="210" width="160" height="160" as="geometry" />
        </mxCell>
        <mxCell id="_4A2EX0xtFqQqvu9u2pJ-4" value="External Request" style="text;html=1;align=center;verticalAlign=middle;whiteSpace=wrap;rounded=0;" vertex="1" parent="1">
          <mxGeometry x="-120" y="275" width="60" height="30" as="geometry" />
        </mxCell>
        <mxCell id="_4A2EX0xtFqQqvu9u2pJ-5" value="" style="shape=waypoint;sketch=0;fillStyle=solid;size=6;pointerEvents=1;points=[];fillColor=#fa6800;resizable=0;rotatable=0;perimeter=centerPerimeter;snapToPoint=1;strokeWidth=5;fontColor=#000000;strokeColor=#C73500;" vertex="1" parent="1">
          <mxGeometry x="-100" y="310" width="20" height="20" as="geometry" />
        </mxCell>
        <mxCell id="_4A2EX0xtFqQqvu9u2pJ-6" value="" style="rounded=0;whiteSpace=wrap;html=1;fillColor=#60a917;fontColor=#ffffff;strokeColor=#2D7600;opacity=25;" vertex="1" parent="1">
          <mxGeometry x="228" y="385" width="30" height="30" as="geometry" />
        </mxCell>
        <mxCell id="_4A2EX0xtFqQqvu9u2pJ-7" value="" style="shape=waypoint;sketch=0;fillStyle=solid;size=6;pointerEvents=1;points=[];fillColor=#fa6800;resizable=0;rotatable=0;perimeter=centerPerimeter;snapToPoint=1;strokeWidth=5;fontColor=#000000;strokeColor=#C73500;opacity=25;" vertex="1" parent="1">
          <mxGeometry x="233" y="390" width="20" height="20" as="geometry" />
        </mxCell>
        <mxCell id="_4A2EX0xtFqQqvu9u2pJ-8" value="" style="rounded=0;whiteSpace=wrap;html=1;fillColor=#60a917;fontColor=#ffffff;strokeColor=#2D7600;opacity=75;" vertex="1" parent="1">
          <mxGeometry x="40" y="275" width="30" height="30" as="geometry" />
        </mxCell>
        <mxCell id="_4A2EX0xtFqQqvu9u2pJ-9" value="" style="rounded=0;whiteSpace=wrap;html=1;fillColor=#60a917;fontColor=#ffffff;strokeColor=#2D7600;" vertex="1" parent="1">
          <mxGeometry x="75" y="275" width="30" height="30" as="geometry" />
        </mxCell>
        <mxCell id="_4A2EX0xtFqQqvu9u2pJ-10" value="" style="rounded=0;whiteSpace=wrap;html=1;fillColor=#60a917;fontColor=#ffffff;strokeColor=#2D7600;" vertex="1" parent="1">
          <mxGeometry x="110" y="275" width="30" height="30" as="geometry" />
        </mxCell>
        <mxCell id="_4A2EX0xtFqQqvu9u2pJ-11" value="" style="endArrow=classic;html=1;rounded=0;entryX=0.5;entryY=0;entryDx=0;entryDy=0;exitX=0.5;exitY=0;exitDx=0;exitDy=0;" edge="1" parent="1" source="_4A2EX0xtFqQqvu9u2pJ-8" target="_4A2EX0xtFqQqvu9u2pJ-6">
          <mxGeometry width="50" height="50" relative="1" as="geometry">
            <mxPoint x="170" y="289.5" as="sourcePoint" />
            <mxPoint x="620" y="290" as="targetPoint" />
            <Array as="points">
              <mxPoint x="55" y="265" />
              <mxPoint x="241" y="265" />
            </Array>
          </mxGeometry>
        </mxCell>
        <mxCell id="_4A2EX0xtFqQqvu9u2pJ-12" value="" style="rounded=0;whiteSpace=wrap;html=1;fillColor=#FFFF33;fontColor=#ffffff;strokeColor=#CCCC00;opacity=25;" vertex="1" parent="1">
          <mxGeometry x="440" y="275" width="30" height="30" as="geometry" />
        </mxCell>
        <mxCell id="_4A2EX0xtFqQqvu9u2pJ-13" value="" style="shape=waypoint;sketch=0;fillStyle=solid;size=6;pointerEvents=1;points=[];fillColor=#0050ef;resizable=0;rotatable=0;perimeter=centerPerimeter;snapToPoint=1;strokeWidth=5;fontColor=#ffffff;strokeColor=#001DBC;opacity=25;" vertex="1" parent="1">
          <mxGeometry x="445" y="280" width="20" height="20" as="geometry" />
        </mxCell>
        <mxCell id="_4A2EX0xtFqQqvu9u2pJ-14" value="" style="shape=waypoint;sketch=0;fillStyle=solid;size=6;pointerEvents=1;points=[];fillColor=#fa6800;resizable=0;rotatable=0;perimeter=centerPerimeter;snapToPoint=1;strokeWidth=5;fontColor=#000000;strokeColor=#C73500;opacity=75;" vertex="1" parent="1">
          <mxGeometry x="45" y="280" width="20" height="20" as="geometry" />
        </mxCell>
        <mxCell id="_4A2EX0xtFqQqvu9u2pJ-15" value="" style="endArrow=classic;html=1;rounded=0;entryX=0.15;entryY=0.45;entryDx=0;entryDy=0;entryPerimeter=0;" edge="1" parent="1" target="_4A2EX0xtFqQqvu9u2pJ-14">
          <mxGeometry width="50" height="50" relative="1" as="geometry">
            <mxPoint x="-60" y="290" as="sourcePoint" />
            <mxPoint x="-50" y="275" as="targetPoint" />
          </mxGeometry>
        </mxCell>
        <mxCell id="_4A2EX0xtFqQqvu9u2pJ-16" value="" style="endArrow=classic;html=1;rounded=0;entryX=0;entryY=0.5;entryDx=0;entryDy=0;edgeStyle=elbowEdgeStyle;" edge="1" parent="1" source="_4A2EX0xtFqQqvu9u2pJ-13">
          <mxGeometry width="50" height="50" relative="1" as="geometry">
            <mxPoint x="480" y="289.5" as="sourcePoint" />
            <mxPoint x="540" y="290" as="targetPoint" />
          </mxGeometry>
        </mxCell>
        <mxCell id="_4A2EX0xtFqQqvu9u2pJ-17" value="" style="shape=waypoint;sketch=0;fillStyle=solid;size=6;pointerEvents=1;points=[];fillColor=#0050ef;resizable=0;rotatable=0;perimeter=centerPerimeter;snapToPoint=1;strokeWidth=5;fontColor=#ffffff;strokeColor=#001DBC;" vertex="1" parent="1">
          <mxGeometry x="576" y="310" width="20" height="20" as="geometry" />
        </mxCell>
        <mxCell id="_4A2EX0xtFqQqvu9u2pJ-18" value="External Response" style="text;html=1;align=center;verticalAlign=middle;whiteSpace=wrap;rounded=0;" vertex="1" parent="1">
          <mxGeometry x="556" y="275" width="60" height="30" as="geometry" />
        </mxCell>
        <mxCell id="_4A2EX0xtFqQqvu9u2pJ-19" value="" style="rounded=0;whiteSpace=wrap;html=1;fillColor=#60a917;fontColor=#ffffff;strokeColor=#2D7600;" vertex="1" parent="1">
          <mxGeometry x="150" y="385" width="30" height="30" as="geometry" />
        </mxCell>
        <mxCell id="_4A2EX0xtFqQqvu9u2pJ-20" value="" style="endArrow=classic;html=1;rounded=0;entryX=0.5;entryY=1;entryDx=0;entryDy=0;exitX=0;exitY=0.5;exitDx=0;exitDy=0;edgeStyle=elbowEdgeStyle;" edge="1" parent="1" source="_4A2EX0xtFqQqvu9u2pJ-19" target="_4A2EX0xtFqQqvu9u2pJ-3">
          <mxGeometry width="50" height="50" relative="1" as="geometry">
            <mxPoint x="450" y="475" as="sourcePoint" />
            <mxPoint x="260" y="590" as="targetPoint" />
            <Array as="points">
              <mxPoint x="90" y="415" />
            </Array>
          </mxGeometry>
        </mxCell>
        <mxCell id="_4A2EX0xtFqQqvu9u2pJ-21" value="&lt;ul&gt;&lt;li&gt;&lt;font style=&quot;font-size: 14px;&quot;&gt;The &lt;b&gt;Tomcat thread is quickly released&lt;/b&gt; by offloading heavy tasks to the custom thread pool&lt;/font&gt;&lt;/li&gt;&lt;li&gt;&lt;font style=&quot;font-size: 14px;&quot;&gt;CompletableFuture allows chaining operations that continue after the HTTP response is sent&lt;/font&gt;&lt;/li&gt;&lt;li&gt;&lt;font style=&quot;font-size: 14px;&quot;&gt;Worth mentioning : The &lt;b&gt;&quot;fire and forget pattern&quot;&lt;/b&gt; avoids bottlenecks by running tasks asynchronously.&lt;/font&gt;&lt;font style=&quot;font-size: 14px;&quot;&gt;&lt;font style=&quot;&quot;&gt;&amp;nbsp;&lt;/font&gt;Also, there is &lt;b&gt;no response to the client in our case&lt;/b&gt;&lt;/font&gt;&lt;/li&gt;&lt;/ul&gt;" style="text;html=1;align=left;verticalAlign=middle;whiteSpace=wrap;rounded=0;" vertex="1" parent="1">
          <mxGeometry x="-149" y="550" width="780" height="90" as="geometry" />
        </mxCell>
        <mxCell id="_4A2EX0xtFqQqvu9u2pJ-22" value="Business logic" style="text;html=1;align=center;verticalAlign=middle;whiteSpace=wrap;rounded=0;" vertex="1" parent="1">
          <mxGeometry x="330" y="266" width="110" height="30" as="geometry" />
        </mxCell>
        <mxCell id="_4A2EX0xtFqQqvu9u2pJ-23" value="&lt;font style=&quot;color: rgb(255, 255, 255); font-size: 16px;&quot;&gt;&lt;b&gt;AFTER&lt;/b&gt;&lt;/font&gt;" style="rounded=1;whiteSpace=wrap;html=1;fillColor=#1ba1e2;strokeColor=#006EAF;fontColor=#ffffff;" vertex="1" parent="1">
          <mxGeometry x="564" y="167" width="84" height="40" as="geometry" />
        </mxCell>
        <mxCell id="_4A2EX0xtFqQqvu9u2pJ-24" value="" style="endArrow=classic;html=1;rounded=0;exitX=0;exitY=0.5;exitDx=0;exitDy=0;entryX=1;entryY=0.5;entryDx=0;entryDy=0;" edge="1" parent="1" source="_4A2EX0xtFqQqvu9u2pJ-6" target="_4A2EX0xtFqQqvu9u2pJ-19">
          <mxGeometry width="50" height="50" relative="1" as="geometry">
            <mxPoint x="246" y="340" as="sourcePoint" />
            <mxPoint x="296" y="290" as="targetPoint" />
          </mxGeometry>
        </mxCell>
        <mxCell id="_4A2EX0xtFqQqvu9u2pJ-25" value="&lt;div&gt;&lt;span style=&quot;background-color: transparent; color: light-dark(rgb(0, 0, 0), rgb(255, 255, 255));&quot;&gt;&lt;font style=&quot;font-size: 9px;&quot;&gt;Custom&amp;nbsp;&lt;/font&gt;&lt;/span&gt;&lt;/div&gt;&lt;div&gt;&lt;div&gt;&lt;font style=&quot;font-size: 9px;&quot;&gt;Threads&amp;nbsp;&lt;span style=&quot;background-color: transparent; color: light-dark(rgb(0, 0, 0), rgb(255, 255, 255));&quot;&gt;pool&lt;/span&gt;&lt;/font&gt;&lt;/div&gt;&lt;/div&gt;&lt;div&gt;&lt;font style=&quot;font-size: 9px;&quot;&gt;&lt;br&gt;&lt;/font&gt;&lt;/div&gt;&lt;div&gt;&lt;font style=&quot;font-size: 9px;&quot;&gt;&lt;br&gt;&lt;/font&gt;&lt;/div&gt;&lt;div&gt;&lt;font style=&quot;font-size: 9px;&quot;&gt;&lt;br&gt;&lt;/font&gt;&lt;/div&gt;&lt;div&gt;&lt;div&gt;&lt;font style=&quot;font-size: 9px;&quot;&gt;The request is&amp;nbsp;&lt;/font&gt;&lt;span style=&quot;font-size: 9px; background-color: transparent; color: light-dark(rgb(0, 0, 0), rgb(255, 255, 255));&quot;&gt;handled&amp;nbsp;&lt;/span&gt;&lt;/div&gt;&lt;div&gt;&lt;font style=&quot;background-color: transparent; color: light-dark(rgb(0, 0, 0), rgb(255, 255, 255)); font-size: 9px;&quot;&gt;by&amp;nbsp;&lt;/font&gt;&lt;font style=&quot;background-color: transparent; color: light-dark(rgb(0, 0, 0), rgb(255, 255, 255)); font-size: 9px;&quot;&gt;&lt;span style=&quot;background-color: transparent; color: light-dark(rgb(0, 0, 0), rgb(255, 255, 255));&quot;&gt;a&amp;nbsp;&lt;/span&gt;&lt;/font&gt;&lt;span style=&quot;background-color: transparent; color: light-dark(rgb(0, 0, 0), rgb(255, 255, 255)); font-size: 9px;&quot;&gt;thread&lt;/span&gt;&lt;/div&gt;&lt;/div&gt;" style="ellipse;whiteSpace=wrap;html=1;" vertex="1" parent="1">
          <mxGeometry x="290" y="340" width="120" height="120" as="geometry" />
        </mxCell>
        <mxCell id="_4A2EX0xtFqQqvu9u2pJ-26" value="" style="rounded=0;whiteSpace=wrap;html=1;fillColor=#FFFF00;fontColor=#ffffff;strokeColor=#CCCC00;opacity=50;" vertex="1" parent="1">
          <mxGeometry x="300" y="385" width="30" height="30" as="geometry" />
        </mxCell>
        <mxCell id="_4A2EX0xtFqQqvu9u2pJ-27" value="" style="rounded=0;whiteSpace=wrap;html=1;fillColor=#FFFF00;fontColor=#ffffff;strokeColor=#CCCC00;" vertex="1" parent="1">
          <mxGeometry x="335" y="385" width="30" height="30" as="geometry" />
        </mxCell>
        <mxCell id="_4A2EX0xtFqQqvu9u2pJ-28" value="" style="rounded=0;whiteSpace=wrap;html=1;fillColor=#FFFF00;fontColor=#ffffff;strokeColor=#CCCC00;" vertex="1" parent="1">
          <mxGeometry x="370" y="385" width="30" height="30" as="geometry" />
        </mxCell>
        <mxCell id="_4A2EX0xtFqQqvu9u2pJ-29" value="" style="shape=waypoint;sketch=0;fillStyle=solid;size=6;pointerEvents=1;points=[];fillColor=#fa6800;resizable=0;rotatable=0;perimeter=centerPerimeter;snapToPoint=1;strokeWidth=5;fontColor=#000000;strokeColor=#C73500;opacity=75;" vertex="1" parent="1">
          <mxGeometry x="305" y="390" width="20" height="20" as="geometry" />
        </mxCell>
        <mxCell id="_4A2EX0xtFqQqvu9u2pJ-30" value="" style="endArrow=classic;html=1;rounded=0;" edge="1" parent="1" source="_4A2EX0xtFqQqvu9u2pJ-7" target="_4A2EX0xtFqQqvu9u2pJ-29">
          <mxGeometry width="50" height="50" relative="1" as="geometry">
            <mxPoint x="256" y="420" as="sourcePoint" />
            <mxPoint x="306" y="370" as="targetPoint" />
          </mxGeometry>
        </mxCell>
        <mxCell id="_4A2EX0xtFqQqvu9u2pJ-33" value="" style="rounded=0;whiteSpace=wrap;html=1;fillColor=#FFFF00;fontColor=#ffffff;strokeColor=#CCCC00;opacity=25;" vertex="1" parent="1">
          <mxGeometry x="300" y="275" width="30" height="30" as="geometry" />
        </mxCell>
        <mxCell id="_4A2EX0xtFqQqvu9u2pJ-34" value="" style="shape=waypoint;sketch=0;fillStyle=solid;size=6;pointerEvents=1;points=[];fillColor=#fa6800;resizable=0;rotatable=0;perimeter=centerPerimeter;snapToPoint=1;strokeWidth=5;fontColor=#000000;strokeColor=#C73500;opacity=25;" vertex="1" parent="1">
          <mxGeometry x="305" y="280" width="20" height="20" as="geometry" />
        </mxCell>
        <mxCell id="_4A2EX0xtFqQqvu9u2pJ-35" value="" style="endArrow=classic;html=1;rounded=0;exitX=0.5;exitY=0;exitDx=0;exitDy=0;entryX=0.5;entryY=1;entryDx=0;entryDy=0;" edge="1" parent="1" source="_4A2EX0xtFqQqvu9u2pJ-26" target="_4A2EX0xtFqQqvu9u2pJ-33">
          <mxGeometry width="50" height="50" relative="1" as="geometry">
            <mxPoint x="360" y="290" as="sourcePoint" />
            <mxPoint x="410" y="240" as="targetPoint" />
          </mxGeometry>
        </mxCell>
        <mxCell id="_4A2EX0xtFqQqvu9u2pJ-36" value="" style="endArrow=classic;html=1;rounded=0;exitX=1;exitY=0.5;exitDx=0;exitDy=0;entryX=0;entryY=0.5;entryDx=0;entryDy=0;" edge="1" parent="1" source="_4A2EX0xtFqQqvu9u2pJ-33" target="_4A2EX0xtFqQqvu9u2pJ-12">
          <mxGeometry width="50" height="50" relative="1" as="geometry">
            <mxPoint x="360" y="290" as="sourcePoint" />
            <mxPoint x="410" y="240" as="targetPoint" />
          </mxGeometry>
        </mxCell>
        <mxCell id="_4A2EX0xtFqQqvu9u2pJ-39" value="" style="endArrow=classic;html=1;rounded=0;entryX=0.5;entryY=0;entryDx=0;entryDy=0;exitX=0.5;exitY=1;exitDx=0;exitDy=0;" edge="1" parent="1" source="_4A2EX0xtFqQqvu9u2pJ-12" target="_4A2EX0xtFqQqvu9u2pJ-38">
          <mxGeometry width="50" height="50" relative="1" as="geometry">
            <mxPoint x="445" y="305" as="sourcePoint" />
            <mxPoint x="390" y="400" as="targetPoint" />
            <Array as="points" />
          </mxGeometry>
        </mxCell>
        <mxCell id="_4A2EX0xtFqQqvu9u2pJ-38" value="" style="rounded=0;whiteSpace=wrap;html=1;fillColor=#FFFF33;fontColor=#ffffff;strokeColor=#CCCC00;opacity=25;" vertex="1" parent="1">
          <mxGeometry x="440" y="385" width="30" height="30" as="geometry" />
        </mxCell>
        <mxCell id="_4A2EX0xtFqQqvu9u2pJ-40" value="" style="endArrow=classic;html=1;rounded=0;entryX=1;entryY=0.5;entryDx=0;entryDy=0;exitX=0;exitY=0.5;exitDx=0;exitDy=0;" edge="1" parent="1" source="_4A2EX0xtFqQqvu9u2pJ-38" target="_4A2EX0xtFqQqvu9u2pJ-25">
          <mxGeometry width="50" height="50" relative="1" as="geometry">
            <mxPoint x="290" y="430" as="sourcePoint" />
            <mxPoint x="340" y="380" as="targetPoint" />
          </mxGeometry>
        </mxCell>
      </root>
    </mxGraphModel>
  </diagram>
</mxfile>
